<svg width="99" height="99" viewBox="0 0 99 99" fill="none" xmlns="http://www.w3.org/2000/svg">
<rect x="13.2097" y="1.5" width="72.5806" height="70.9895" rx="35.4947" stroke="black" stroke-width="3"/>
<ellipse cx="48.9678" cy="37.5157" rx="2.12903" ry="28.1368" fill="#010101"/>
<path d="M16.8388 92.5344L15.2008 96.3684H4.70679V95.8104L5.15679 95.7564C5.68479 95.6964 6.02679 95.4684 6.18279 95.0724C6.27879 94.8444 6.32679 94.4124 6.32679 93.7764V86.7024C6.32679 85.6824 6.12879 85.0764 5.73279 84.8844C5.55279 84.8004 5.21079 84.7284 4.70679 84.6684V84.1104H14.9848L16.2268 87.3504L15.6508 87.5844C14.8228 86.5884 14.0308 85.8984 13.2748 85.5144C12.4588 85.0944 11.4268 84.8844 10.1788 84.8844C9.47079 84.8844 8.98479 84.9564 8.72079 85.1004C8.32479 85.3164 8.12679 85.7424 8.12679 86.3784V89.4384H9.49479C10.3108 89.4384 10.8688 89.2524 11.1688 88.8804C11.3968 88.6044 11.5648 88.0284 11.6728 87.1524H12.2848V92.5344H11.6728C11.5888 91.7424 11.4028 91.1724 11.1148 90.8244C10.7668 90.4164 10.2148 90.2124 9.45879 90.2124H8.12679V94.0104C8.12679 94.5384 8.20479 94.8984 8.36079 95.0904C8.63679 95.4264 9.23679 95.5944 10.1608 95.5944C11.5648 95.5944 12.7348 95.3244 13.6708 94.7844C14.4868 94.3164 15.3568 93.4824 16.2808 92.2824L16.8388 92.5344ZM30.7119 84.6684C30.0399 84.8004 29.5179 85.0224 29.1459 85.3344C28.8699 85.5624 28.5159 86.0064 28.0839 86.6664L25.1139 91.2204V93.8664C25.1139 94.4544 25.1679 94.8744 25.2759 95.1264C25.4439 95.5104 25.7799 95.7204 26.2839 95.7564L27.0219 95.8104V96.3684H21.4059V95.8104L22.1439 95.7564C22.6599 95.7204 23.0019 95.4984 23.1699 95.0904C23.2659 94.8384 23.3139 94.4004 23.3139 93.7764V91.2564L20.3079 86.4684C19.9359 85.8804 19.6659 85.4964 19.4979 85.3164C19.1859 85.0164 18.7719 84.8004 18.2559 84.6684V84.1104H23.3139V84.6684C22.3659 84.7884 21.8919 85.0344 21.8919 85.4064C21.8919 85.5504 21.9819 85.7664 22.1619 86.0544L24.6999 90.1584L27.2559 86.2344C27.4479 85.9344 27.5439 85.6764 27.5439 85.4604C27.5439 85.0764 27.1059 84.8124 26.2299 84.6684V84.1104H30.7119V84.6684ZM44.5475 92.5344L42.9095 96.3684H32.4155V95.8104L32.8655 95.7564C33.3935 95.6964 33.7355 95.4684 33.8915 95.0724C33.9875 94.8444 34.0355 94.4124 34.0355 93.7764V86.7024C34.0355 85.6824 33.8375 85.0764 33.4415 84.8844C33.2615 84.8004 32.9195 84.7284 32.4155 84.6684V84.1104H42.6935L43.9355 87.3504L43.3595 87.5844C42.5315 86.5884 41.7395 85.8984 40.9835 85.5144C40.1675 85.0944 39.1355 84.8844 37.8875 84.8844C37.1795 84.8844 36.6935 84.9564 36.4295 85.1004C36.0335 85.3164 35.8355 85.7424 35.8355 86.3784V89.4384H37.2035C38.0195 89.4384 38.5775 89.2524 38.8775 88.8804C39.1055 88.6044 39.2735 88.0284 39.3815 87.1524H39.9935V92.5344H39.3815C39.2975 91.7424 39.1115 91.1724 38.8235 90.8244C38.4755 90.4164 37.9235 90.2124 37.1675 90.2124H35.8355V94.0104C35.8355 94.5384 35.9135 94.8984 36.0695 95.0904C36.3455 95.4264 36.9455 95.5944 37.8695 95.5944C39.2735 95.5944 40.4435 95.3244 41.3795 94.7844C42.1955 94.3164 43.0655 93.4824 43.9895 92.2824L44.5475 92.5344ZM65.2302 92.7324C65.2302 93.9444 64.6782 94.9044 63.5742 95.6124C62.6262 96.2244 61.5102 96.5304 60.2262 96.5304C58.7622 96.5304 57.5202 96.1764 56.5002 95.4684L56.1582 96.3684H55.4922L54.3222 92.2464L54.9882 92.0304C56.3082 94.5024 58.0242 95.7384 60.1362 95.7384C60.9882 95.7384 61.7262 95.5104 62.3502 95.0544C63.0462 94.5384 63.3942 93.8724 63.3942 93.0564C63.3942 92.5284 63.2202 92.1024 62.8722 91.7784C62.5362 91.4904 61.9122 91.2324 61.0002 91.0044L58.5882 90.3924C56.6682 89.9004 55.5042 89.1504 55.0962 88.1424C54.9522 87.7944 54.8802 87.4464 54.8802 87.0984C54.8802 86.6664 54.9942 86.2404 55.2222 85.8204C55.9062 84.5244 57.1662 83.8764 59.0022 83.8764C60.3222 83.8764 61.4562 84.1704 62.4042 84.7584L62.6202 84.1104H63.2682L64.3662 87.3684L63.7902 87.5844C62.5302 85.6884 61.0542 84.7404 59.3622 84.7404C58.7142 84.7404 58.1322 84.8964 57.6162 85.2084C57.0162 85.5684 56.7162 86.0544 56.7162 86.6664C56.7162 87.2424 56.9922 87.7044 57.5442 88.0524C57.8922 88.2564 58.4322 88.4484 59.1642 88.6284L61.4142 89.1684C62.8422 89.5164 63.8142 89.9244 64.3302 90.3924C64.9302 90.9684 65.2302 91.7484 65.2302 92.7324ZM79.3091 84.6684C78.6371 84.8004 78.1151 85.0224 77.7431 85.3344C77.4671 85.5624 77.1131 86.0064 76.6811 86.6664L73.7111 91.2204V93.8664C73.7111 94.4544 73.7651 94.8744 73.8731 95.1264C74.0411 95.5104 74.3771 95.7204 74.8811 95.7564L75.6191 95.8104V96.3684H70.0031V95.8104L70.7411 95.7564C71.2571 95.7204 71.5991 95.4984 71.7671 95.0904C71.8631 94.8384 71.9111 94.4004 71.9111 93.7764V91.2564L68.9051 86.4684C68.5331 85.8804 68.2631 85.4964 68.0951 85.3164C67.7831 85.0164 67.3691 84.8004 66.8531 84.6684V84.1104H71.9111V84.6684C70.9631 84.7884 70.4891 85.0344 70.4891 85.4064C70.4891 85.5504 70.5791 85.7664 70.7591 86.0544L73.2971 90.1584L75.8531 86.2344C76.0451 85.9344 76.1411 85.6764 76.1411 85.4604C76.1411 85.0764 75.7031 84.8124 74.8271 84.6684V84.1104H79.3091V84.6684ZM93.9907 90.3384C93.9907 91.6824 93.6247 92.8764 92.8927 93.9204C92.1367 95.0004 91.1227 95.7024 89.8507 96.0264C88.9867 96.2544 87.9067 96.3684 86.6107 96.3684H81.0127V95.8104L81.4627 95.7564C81.9907 95.6964 82.3327 95.4684 82.4887 95.0724C82.5847 94.8444 82.6327 94.4124 82.6327 93.7764V86.7024C82.6327 86.0664 82.5847 85.6344 82.4887 85.4064C82.3327 85.0104 81.9907 84.7824 81.4627 84.7224L81.0127 84.6684V84.1104H86.5027C88.2427 84.1104 89.6347 84.3444 90.6787 84.8124C91.9987 85.3884 92.9407 86.3904 93.5047 87.8184C93.8287 88.6464 93.9907 89.4864 93.9907 90.3384ZM91.8667 90.2124C91.8667 89.5284 91.7827 88.8924 91.6147 88.3044C90.9187 86.0004 89.2387 84.8484 86.5747 84.8484C85.5307 84.8484 84.8887 84.9984 84.6487 85.2984C84.5047 85.4784 84.4327 85.8804 84.4327 86.5044V94.0464C84.4327 94.6704 84.5167 95.0664 84.6847 95.2344C84.9487 95.4984 85.5727 95.6304 86.5567 95.6304C88.2487 95.6304 89.5567 95.1564 90.4807 94.2084C91.4047 93.2484 91.8667 91.9164 91.8667 90.2124Z" fill="black"/>
</svg>
