<svg width="22" height="22" viewBox="0 0 22 22" fill="none" xmlns="http://www.w3.org/2000/svg">
<path fill-rule="evenodd" clip-rule="evenodd" d="M21.4547 15.4595C20.956 14.4553 20.2989 13.5379 19.5086 12.7425C19.2442 12.4438 18.9675 12.1563 18.679 11.8809L18.6442 11.8469C18.5371 11.7429 18.4313 11.6375 18.327 11.5307C19.4074 10.0284 20.3319 8.41986 21.0862 6.73011L21.1164 6.66228L21.1375 6.59078C21.2374 6.25803 21.3511 5.62553 20.9477 5.05353C20.5297 4.46319 19.8615 4.35686 19.4132 4.35686H17.3535C16.9222 4.3372 16.4958 4.45448 16.1352 4.69191C15.7746 4.92933 15.4984 5.27474 15.346 5.67869C14.9027 6.73436 14.3477 7.73956 13.6905 8.67711V6.26353C13.6905 5.95186 13.6612 5.42936 13.3266 4.98936C12.9269 4.46136 12.3485 4.35686 11.947 4.35686H8.67816C8.25162 4.34704 7.83763 4.50166 7.52194 4.78868C7.20625 5.0757 7.01305 5.47314 6.98233 5.89869L6.97958 5.93994V5.98119C6.97958 6.42578 7.15558 6.75394 7.29675 6.96019C7.36 7.05278 7.42692 7.13711 7.47 7.19027L7.47917 7.20219C7.525 7.25903 7.55525 7.29661 7.5855 7.33877C7.66616 7.44694 7.78075 7.61561 7.81375 8.05011V9.40036C7.15758 8.30157 6.61955 7.13641 6.20866 5.92436L6.20133 5.90419L6.194 5.88494C6.08216 5.59253 5.90341 5.16719 5.545 4.84269C5.127 4.46228 4.632 4.35686 4.18191 4.35686H2.09191C1.63633 4.35686 1.08725 4.46319 0.677498 4.89494C0.275081 5.32028 0.229248 5.82994 0.229248 6.09944V6.22228L0.254915 6.34144C0.833607 9.02799 2.02613 11.5442 3.73916 13.6931C4.52234 14.9281 5.58559 15.9612 6.84268 16.7085C8.09976 17.4557 9.51528 17.8962 10.9744 17.9941L11.012 17.9969H11.0505C11.716 17.9969 12.4099 17.9391 12.9315 17.5917C13.6346 17.1224 13.6905 16.4028 13.6905 16.0434V15.0003C13.8711 15.1469 14.0947 15.3431 14.3688 15.6071C14.7007 15.9389 14.9647 16.2268 15.1911 16.4779L15.3121 16.6118C15.4881 16.8079 15.6613 17.0014 15.819 17.1599C16.017 17.3589 16.2617 17.5779 16.5679 17.7402C16.9007 17.9153 17.2499 17.995 17.6202 17.995H19.7112C20.1521 17.995 20.7837 17.8905 21.2282 17.3754C21.7122 16.8144 21.6756 16.1259 21.5234 15.6319L21.4959 15.5429L21.4547 15.4595ZM16.2113 15.5567C15.9272 15.2391 15.6347 14.9292 15.3341 14.6272L15.3313 14.6244C14.0874 13.4254 13.5072 13.2174 13.0965 13.2174C12.8774 13.2174 12.6363 13.2412 12.4796 13.4374C12.409 13.5309 12.3627 13.6405 12.3448 13.7564C12.3227 13.8909 12.3129 14.0271 12.3155 14.1634V16.0434C12.3155 16.2772 12.277 16.3753 12.1688 16.4468C12.0249 16.543 11.7178 16.6209 11.0587 16.6209C9.80677 16.5358 8.59289 16.1546 7.51691 15.5089C6.44092 14.8632 5.53356 13.9713 4.86941 12.9066L4.86208 12.8947L4.85291 12.8837C3.2571 10.8974 2.14494 8.56733 1.60425 6.07744C1.60791 5.95828 1.63358 5.88586 1.67575 5.84186C1.71883 5.79603 1.82425 5.73186 2.09191 5.73186H4.18191C4.41383 5.73186 4.53483 5.78319 4.62191 5.86111C4.71908 5.95094 4.80525 6.10219 4.90792 6.37169C5.42125 7.88053 6.11425 9.29219 6.7715 10.3289C7.09967 10.8478 7.42233 11.2795 7.71383 11.5848C7.85958 11.7369 8.00167 11.8634 8.13825 11.9533C8.26933 12.0394 8.41875 12.1082 8.57275 12.1082C8.65341 12.1082 8.74783 12.099 8.83858 12.0596C8.93659 12.0163 9.01727 11.9414 9.06775 11.8469C9.16216 11.6746 9.18875 11.4207 9.18875 11.0879V7.99602C9.14017 7.24619 8.91375 6.82361 8.69375 6.52386C8.64919 6.4639 8.60335 6.40492 8.55625 6.34694L8.54433 6.33228C8.50524 6.2848 8.46794 6.23587 8.4325 6.18561C8.38737 6.12955 8.36022 6.06118 8.35458 5.98944C8.36177 5.9166 8.39653 5.84926 8.45174 5.80121C8.50695 5.75315 8.57844 5.72802 8.65158 5.73094H11.947C12.1358 5.73094 12.1991 5.77678 12.2312 5.81986C12.277 5.87944 12.3155 6.00319 12.3155 6.26353V10.4142C12.3155 10.9074 12.5428 11.241 12.8728 11.241C13.2523 11.241 13.5264 11.0109 14.0049 10.5324L14.0132 10.5233L14.0205 10.515C15.0939 9.20628 15.9709 7.74814 16.6238 6.18653L16.6275 6.17553C16.6766 6.03755 16.7694 5.91942 16.8919 5.83915C17.0144 5.75888 17.1597 5.72088 17.3058 5.73094H19.4142C19.7002 5.73094 19.7937 5.80428 19.8248 5.84736C19.8569 5.89319 19.8798 5.99128 19.8248 6.18378C19.0719 7.8671 18.1411 9.46508 17.0482 10.9504L17.0409 10.9614C16.9355 11.1237 16.8191 11.3034 16.8026 11.5087C16.7842 11.7305 16.8796 11.9313 17.0473 12.1476C17.1692 12.3273 17.4213 12.5739 17.6771 12.8241L17.7009 12.8479C17.9686 13.1101 18.2592 13.3943 18.492 13.6693L18.4984 13.6757L18.5048 13.683C19.1991 14.3756 19.7765 15.1761 20.2144 16.0535C20.2841 16.2919 20.2419 16.4147 20.1869 16.4779C20.1237 16.5513 19.9816 16.62 19.7121 16.62H17.6202C17.4777 16.6235 17.3366 16.5904 17.2105 16.5238C17.0559 16.4339 16.9157 16.3214 16.7943 16.1901C16.6632 16.059 16.5212 15.9004 16.347 15.707L16.2122 15.5567H16.2113Z" fill="white"/>
</svg>
